<svg width="32" height="21" viewBox="0 0 32 21" fill="none" xmlns="http://www.w3.org/2000/svg">
<path d="M2.86667 0.257291L2.26133 0.261291C2.06133 0.267958 1.85733 0.278624 1.65867 0.314624C1.35843 0.362071 1.07374 0.480126 0.828032 0.659076C0.582324 0.838026 0.382614 1.07276 0.245333 1.34396C0.152 1.52796 0.0933333 1.71462 0.0586667 1.91729C0.0213333 2.11462 0.00933333 2.31729 0.00533333 2.51729L0 2.79596V18.2053C0 18.2977 0.00133333 18.3897 0.004 18.4813C0.00933333 18.6813 0.0213333 18.8853 0.0573333 19.084C0.092 19.2831 0.155111 19.4737 0.246667 19.656C0.430828 20.0177 0.724908 20.3118 1.08667 20.496C1.27067 20.5893 1.45733 20.6493 1.66 20.6853C1.85733 20.7213 2.06 20.7333 2.26 20.7386L2.53733 20.7426H29.4627L29.7387 20.7386C29.9387 20.7333 30.1427 20.7213 30.3413 20.6853C30.54 20.6493 30.7293 20.5906 30.912 20.4973C31.275 20.3138 31.5698 20.019 31.7533 19.656C31.8467 19.472 31.9067 19.2853 31.9413 19.0826C31.9773 18.8853 31.9893 18.6826 31.9947 18.4826C31.9973 18.3902 31.9987 18.2977 31.9987 18.2053L32 17.8773V2.79462C32 2.70218 31.9982 2.61018 31.9947 2.51862C31.9921 2.31668 31.9743 2.11521 31.9413 1.91596C31.8768 1.51476 31.6874 1.1441 31.4002 0.856637C31.113 0.569175 30.7425 0.379525 30.3413 0.314624C30.1421 0.281657 29.9406 0.263829 29.7387 0.261291C29.5374 0.255812 29.336 0.254478 29.1347 0.257291H2.86667ZM2.86667 0.939957H29.456C29.5431 0.939957 29.6307 0.941291 29.7187 0.943958C29.872 0.949291 30.052 0.95729 30.2187 0.986624C30.364 1.01329 30.4853 1.05329 30.6013 1.11196C30.8351 1.23091 31.025 1.4209 31.144 1.65462C31.205 1.77552 31.2473 1.905 31.2693 2.03862C31.2987 2.20262 31.3067 2.38262 31.3107 2.53729C31.3133 2.62351 31.3147 2.71107 31.3147 2.79996V18.2026C31.3147 18.2888 31.3133 18.376 31.3107 18.464C31.3067 18.6173 31.2987 18.7973 31.268 18.964C31.2388 19.16 31.1631 19.3463 31.0471 19.5071C30.9311 19.6678 30.7782 19.7985 30.6013 19.888C30.4813 19.9487 30.3527 19.991 30.22 20.0133C30.0553 20.0379 29.8892 20.0521 29.7227 20.056L29.456 20.06H2.54133C2.45244 20.06 2.36533 20.0586 2.28 20.056C2.1126 20.0522 1.94561 20.038 1.78 20.0133C1.63467 19.9866 1.51333 19.9466 1.396 19.888C1.16108 19.7711 0.970934 19.5805 0.854667 19.3453C0.79363 19.2244 0.751367 19.0949 0.729333 18.9613C0.702701 18.7968 0.688439 18.6306 0.686667 18.464L0.684 18.2013V2.79862L0.686667 2.53596C0.692 2.38396 0.7 2.20529 0.729333 2.03596C0.756 1.89196 0.796 1.77062 0.854667 1.65329C0.973846 1.42006 1.16381 1.23056 1.39733 1.11196C1.51781 1.05105 1.64684 1.00879 1.78 0.986624C1.94667 0.95729 2.12667 0.947958 2.28 0.943958L2.54133 0.939957H2.86667ZM9.14667 5.87329C8.74667 5.89462 8.256 6.13862 7.97333 6.48129C7.71867 6.77462 7.49333 7.25462 7.552 7.70529C8.00267 7.74529 8.452 7.47996 8.736 7.14796C9.00933 6.80396 9.196 6.34396 9.14667 5.87462V5.87329ZM12.0893 6.43329V13.7573H13.2253V11.2546H14.7987C16.236 11.2546 17.2453 10.2693 17.2453 8.83862C17.2453 7.41196 16.256 6.43196 14.8347 6.43196L12.0893 6.43329ZM13.2253 7.39196H14.5347C15.52 7.39196 16.0827 7.91996 16.0827 8.84396C16.0827 9.76662 15.52 10.3 14.5307 10.3H13.2253V7.39196ZM9.02 7.79196C8.42 7.80529 7.91333 8.16529 7.62 8.16529C7.30667 8.16529 6.82933 7.81329 6.312 7.82262C5.9756 7.83155 5.64735 7.92813 5.35972 8.10282C5.07209 8.2775 4.83504 8.52423 4.672 8.81862C3.96933 10.0293 4.48667 11.8253 5.17067 12.812C5.50267 13.3 5.90267 13.8373 6.42933 13.8173C6.92667 13.7986 7.12267 13.4946 7.72667 13.4946C8.332 13.4946 8.508 13.8173 9.03333 13.808C9.58 13.7986 9.92267 13.32 10.2533 12.8306C10.6347 12.2746 10.7907 11.7373 10.8 11.7093C10.7907 11.6986 9.74667 11.2986 9.73733 10.0973C9.72667 9.09196 10.5573 8.61329 10.596 8.58396C10.1267 7.89062 9.396 7.81329 9.14267 7.79329L9.02 7.79196ZM19.9587 8.32129C18.6387 8.32129 17.8173 9.03196 17.756 9.99596H18.792C18.888 9.51862 19.284 9.21462 19.9187 9.21462C20.588 9.21462 20.9893 9.56929 20.9893 10.1626V10.5746L19.5267 10.66C18.2587 10.732 17.5427 11.3053 17.5427 12.2386C17.5427 13.1986 18.2733 13.848 19.3187 13.848C20.02 13.848 20.6947 13.4733 21.004 12.8786H21.0293V13.7573H22.08V10.0773C22.08 9.00662 21.2533 8.32129 19.9587 8.32129ZM22.5453 8.41729L24.4733 13.7626C24.4733 13.7666 24.376 14.0826 24.376 14.092C24.2093 14.6386 23.936 14.8533 23.428 14.8533C23.336 14.8533 23.1533 14.8533 23.072 14.8333V15.7213C23.152 15.736 23.428 15.7466 23.5187 15.7466C24.6253 15.7466 25.1533 15.3306 25.6093 14.036L27.6093 8.41729H26.452L25.1027 12.7626H25.0827L23.732 8.41596L22.5453 8.41729ZM20.9893 11.336V11.7573C20.9893 12.452 20.3893 12.98 19.624 12.98C19.0347 12.98 18.6493 12.676 18.6493 12.208C18.6493 11.752 19.02 11.4613 19.6747 11.4173L20.9893 11.336Z" fill="black"/>
</svg>
