<svg width="20" height="21" viewBox="0 0 20 21" fill="none" xmlns="http://www.w3.org/2000/svg">
    <path
        d="M17.2979 8.066H2.70186C2.40653 8.06662 2.11514 8.13384 1.84937 8.26265C1.58361 8.39146 1.35032 8.57856 1.16686 8.81C0.984631 9.04116 0.85727 9.31068 0.794388 9.59824C0.731507 9.8858 0.734747 10.1839 0.803864 10.47L2.36886 16.878C2.59504 17.7038 3.08709 18.432 3.76886 18.95C4.45086 19.469 5.28586 19.75 6.14486 19.75H13.8529C14.7119 19.75 15.5469 19.469 16.2289 18.95C16.9106 18.432 17.4027 17.7038 17.6289 16.878L19.1939 10.471C19.2992 10.0391 19.253 9.58403 19.0629 9.18209C18.8729 8.78015 18.5505 8.45568 18.1499 8.263C17.8837 8.13385 17.5917 8.0665 17.2959 8.066M6.08686 11.96V15.855M9.99986 11.96V15.855M13.9129 11.96V15.855M16.8479 8.066C16.8475 7.17005 16.6701 6.28299 16.3259 5.45582C15.9816 4.62864 15.4773 3.87765 14.8419 3.246C13.5551 1.96687 11.8142 1.24924 9.99986 1.25C8.1855 1.24924 6.44463 1.96687 5.15786 3.246C4.52263 3.87773 4.01848 4.62876 3.6744 5.45593C3.33032 6.2831 3.15308 7.17012 3.15286 8.066"
        stroke="black" stroke-width="1.5" stroke-linecap="round" stroke-linejoin="round" />
</svg>