<svg width="13" height="13" viewBox="0 0 13 13" fill="none" xmlns="http://www.w3.org/2000/svg">
<path d="M4.23179 5.58976C4.23179 5.45715 4.28447 5.32997 4.37824 5.2362C4.47201 5.14243 4.59918 5.08976 4.73179 5.08976H7.73179C7.8644 5.08976 7.99158 5.14243 8.08534 5.2362C8.17911 5.32997 8.23179 5.45715 8.23179 5.58976C8.23179 5.72236 8.17911 5.84954 8.08534 5.94331C7.99158 6.03708 7.8644 6.08976 7.73179 6.08976H4.73179C4.59918 6.08976 4.47201 6.03708 4.37824 5.94331C4.28447 5.84954 4.23179 5.72236 4.23179 5.58976ZM4.73179 7.08976C4.59918 7.08976 4.47201 7.14243 4.37824 7.2362C4.28447 7.32997 4.23179 7.45715 4.23179 7.58976C4.23179 7.72236 4.28447 7.84954 4.37824 7.94331C4.47201 8.03708 4.59918 8.08976 4.73179 8.08976H6.73179C6.8644 8.08976 6.99158 8.03708 7.08534 7.94331C7.17911 7.84954 7.23179 7.72236 7.23179 7.58976C7.23179 7.45715 7.17911 7.32997 7.08534 7.2362C6.99158 7.14243 6.8644 7.08976 6.73179 7.08976H4.73179ZM0.231791 6.58976C0.232046 5.2688 0.668216 3.98485 1.47264 2.93708C2.27706 1.88931 3.40477 1.13629 4.68083 0.794835C5.95689 0.453378 7.30997 0.542571 8.53016 1.04858C9.75036 1.55458 10.7695 2.44912 11.4294 3.59342C12.0893 4.73771 12.3532 6.06781 12.18 7.37736C12.0069 8.68692 11.4064 9.90274 10.4718 10.8362C9.53714 11.7697 8.32057 12.3686 7.0108 12.5401C5.70102 12.7116 4.37126 12.4461 3.22779 11.7848L0.889791 12.5648C0.803413 12.5936 0.710799 12.5983 0.621945 12.5784C0.533091 12.5584 0.45137 12.5146 0.385603 12.4516C0.319836 12.3886 0.27252 12.3088 0.248762 12.2209C0.225003 12.133 0.225705 12.0403 0.250791 11.9528L0.962791 9.46175C0.482811 8.58061 0.231478 7.59315 0.231791 6.58976ZM6.23179 1.58975C5.34897 1.5897 4.48188 1.82339 3.71865 2.26706C2.95541 2.71074 2.32326 3.34858 1.88644 4.11576C1.44962 4.88293 1.22371 5.75208 1.23168 6.63487C1.23964 7.51765 1.4812 8.38259 1.93179 9.14176C1.96646 9.2004 1.98878 9.26551 1.99737 9.33309C2.00597 9.40067 2.00067 9.4693 1.98179 9.53475L1.47279 11.3148L3.13079 10.7628C3.20121 10.7393 3.27597 10.7317 3.34965 10.7407C3.42334 10.7497 3.4941 10.775 3.55679 10.8148C4.21206 11.2294 4.95481 11.486 5.72632 11.5643C6.49783 11.6425 7.27696 11.5402 8.00213 11.2654C8.72729 10.9907 9.37861 10.551 9.9046 9.9812C10.4306 9.41139 10.8168 8.72704 11.0328 7.98226C11.2488 7.23747 11.2885 6.45266 11.149 5.68985C11.0094 4.92705 10.6943 4.20716 10.2286 3.5871C9.76294 2.96703 9.1594 2.46379 8.46573 2.11714C7.77205 1.77049 7.00726 1.58994 6.23179 1.58975Z" fill="black"/>
</svg>
