<svg width="23" height="24" viewBox="0 0 23 24" fill="none" xmlns="http://www.w3.org/2000/svg">
<path d="M11.4464 0.85704C9.23758 0.85704 7.07834 1.51204 5.24176 2.7392C3.40517 3.96637 1.97373 5.71059 1.12845 7.75129C0.283159 9.79199 0.0619938 12.0375 0.492917 14.2039C0.92384 16.3703 1.9875 18.3603 3.54938 19.9222C5.11127 21.4841 7.10123 22.5477 9.26763 22.9786C11.434 23.4096 13.6796 23.1884 15.7203 22.3431C17.761 21.4978 19.5052 20.0664 20.7323 18.2298C21.9595 16.3932 22.6145 14.234 22.6145 12.0251C22.6145 9.06317 21.4379 6.22252 19.3435 4.1281C17.249 2.03368 14.4084 0.85704 11.4464 0.85704ZM15.7741 15.6408C15.7233 15.7175 15.658 15.7835 15.5817 15.8349C15.5054 15.8862 15.4197 15.922 15.3296 15.9402C15.2394 15.9584 15.1465 15.9585 15.0563 15.9407C14.9661 15.9229 14.8803 15.8874 14.8038 15.8362L10.6856 13.0442V6.96459C10.6856 6.77947 10.7591 6.60193 10.89 6.47103C11.0209 6.34012 11.1985 6.26658 11.3836 6.26658C11.5687 6.26658 11.7463 6.34012 11.8772 6.47103C12.0081 6.60193 12.0816 6.77947 12.0816 6.96459V12.3043L15.5716 14.6706C15.6489 14.7207 15.7155 14.7857 15.7676 14.8617C15.8196 14.9377 15.8561 15.0233 15.8749 15.1135C15.8938 15.2037 15.8945 15.2968 15.8772 15.3872C15.8599 15.4777 15.8248 15.5639 15.7741 15.6408ZM15.5297 5.20562C14.5476 4.61365 13.4491 4.24114 12.3094 4.11366C11.1698 3.98619 10.0161 4.10675 8.92747 4.46707C7.83882 4.8274 6.84101 5.41897 6.00248 6.20119C5.16396 6.98342 4.50458 7.93778 4.06958 8.99879C3.63457 10.0598 3.43425 11.2024 3.48234 12.3481C3.53043 13.4938 3.82581 14.6156 4.3482 15.6364C4.87059 16.6572 5.60763 17.553 6.50876 18.2622C7.40989 18.9714 8.45377 19.4772 9.56878 19.7451L9.3524 20.8409C8.07362 20.5433 6.87465 19.9717 5.83829 19.1656C4.80192 18.3595 3.95283 17.338 3.34964 16.1718C2.74645 15.0056 2.40353 13.7224 2.34454 12.4108C2.28556 11.0991 2.51191 9.7903 3.00799 8.57466C3.50407 7.35902 4.25804 6.26551 5.21787 5.36962C6.1777 4.47373 7.32051 3.79681 8.56742 3.38559C9.81432 2.97436 11.1356 2.83863 12.4401 2.98775C13.7446 3.13688 15.0011 3.56732 16.1231 4.24935L15.5297 5.20562Z" fill="#0CA201"/>
</svg>
