<svg width="22" height="20" viewBox="0 0 22 20" fill="none" xmlns="http://www.w3.org/2000/svg">
<path d="M21 5.5V3.5C21 2.96957 20.7893 2.46086 20.4142 2.08579C20.0391 1.71071 19.5304 1.5 19 1.5H3C2.46957 1.5 1.96086 1.71071 1.58579 2.08579C1.21071 2.46086 1 2.96957 1 3.5V13.5C1 14.0304 1.21071 14.5391 1.58579 14.9142C1.96086 15.2893 2.46957 15.5 3 15.5H11M21 5.5H5M21 5.5V7.5" stroke="black" stroke-width="1.5" stroke-linecap="round" stroke-linejoin="round"/>
<path d="M17.992 10.625L20.548 11.274C20.814 11.342 21.001 11.584 20.993 11.858C20.821 17.616 17.5 18.5 17.5 18.5C17.5 18.5 14.179 17.616 14.007 11.858C14.0042 11.7247 14.0467 11.5944 14.1275 11.4883C14.2084 11.3823 14.3227 11.3067 14.452 11.274L17.008 10.625C17.331 10.543 17.669 10.543 17.992 10.625Z" stroke="black" stroke-width="1.5" stroke-linecap="round" stroke-linejoin="round"/>
</svg>
