<svg width="22" height="22" viewBox="0 0 22 22" fill="none" xmlns="http://www.w3.org/2000/svg">
<path d="M19.5508 6.02563V11.0256M1.55078 6.02563V16.1866C1.55078 17.5696 3.49678 18.3916 7.38778 20.0346C8.95078 20.6956 9.73278 21.0256 10.5508 21.0256V10.3806M13.5508 18.0256C13.5508 18.0256 14.4258 18.0256 15.3008 20.0256C15.3008 20.0256 18.0808 15.0256 20.5508 14.0256" stroke="#898483" stroke-width="1.5" stroke-linecap="round" stroke-linejoin="round"/>
<path d="M4.55078 11.0256L6.55078 12.0256M15.5508 3.02563L5.55078 8.02563M6.87678 8.71663L3.95578 7.30363C2.35278 6.52763 1.55078 6.13963 1.55078 5.52563C1.55078 4.91163 2.35278 4.52363 3.95578 3.74763L6.87578 2.33463C8.68078 1.46163 9.58078 1.02563 10.5508 1.02563C11.5208 1.02563 12.4218 1.46163 14.2248 2.33463L17.1458 3.74763C18.7488 4.52363 19.5508 4.91163 19.5508 5.52563C19.5508 6.13963 18.7488 6.52763 17.1458 7.30363L14.2258 8.71663C12.4208 9.58963 11.5208 10.0256 10.5508 10.0256C9.58078 10.0256 8.67978 9.58963 6.87678 8.71663Z" stroke="#898483" stroke-width="1.5" stroke-linecap="round" stroke-linejoin="round"/>
</svg>
