<svg width="21" height="23" viewBox="0 0 21 23" fill="none" xmlns="http://www.w3.org/2000/svg">
<path d="M12.1633 1.06365C11.77 0.700751 11.2599 0.5 10.7312 0.5C10.2024 0.5 9.69236 0.700751 9.29904 1.06365L1.4419 8.31375C1.21824 8.51992 1.03932 8.7721 0.916753 9.05391C0.794186 9.33572 0.730718 9.64085 0.730469 9.94949V20.2994C0.730469 20.8831 0.956233 21.4428 1.3581 21.8555C1.75996 22.2682 2.305 22.5 2.87333 22.5H5.73047C6.29879 22.5 6.84383 22.2682 7.2457 21.8555C7.64756 21.4428 7.87333 20.8831 7.87333 20.2994V14.4313C7.87333 14.2368 7.94858 14.0502 8.08253 13.9126C8.21649 13.7751 8.39817 13.6978 8.58761 13.6978H12.8733C13.0628 13.6978 13.2444 13.7751 13.3784 13.9126C13.5124 14.0502 13.5876 14.2368 13.5876 14.4313V20.2994C13.5876 20.8831 13.8134 21.4428 14.2152 21.8555C14.6171 22.2682 15.1621 22.5 15.7305 22.5H18.5876C19.1559 22.5 19.701 22.2682 20.1028 21.8555C20.5047 21.4428 20.7305 20.8831 20.7305 20.2994V9.94949C20.7304 9.64096 20.6672 9.3359 20.5448 9.05409C20.4225 8.77229 20.2439 8.52005 20.0205 8.31375L12.1633 1.06365Z" fill="#0CA201"/>
</svg>
