<svg width="16" height="19" viewBox="0 0 16 19" fill="none" xmlns="http://www.w3.org/2000/svg">
<path d="M2 18.308C1.436 18.308 0.961667 18.1157 0.577 17.731C0.192333 17.3463 0 16.875 0 16.317V14.308H3V0.692986L4.27 1.57699L5.577 0.691986L6.885 1.57699L8.192 0.691986L9.5 1.57699L10.808 0.692986L12.116 1.57699L13.423 0.692986L14.731 1.57699L16 0.691986V16.308C16 16.872 15.8077 17.3463 15.423 17.731C15.0383 18.1157 14.564 18.308 14 18.308H2ZM14 17.308C14.2833 17.308 14.521 17.212 14.713 17.02C14.905 16.828 15.0007 16.5907 15 16.308V2.30799H4V14.308H13V16.308C13 16.5913 13.096 16.829 13.288 17.021C13.48 17.213 13.7173 17.3087 14 17.308ZM5.385 5.80799V4.80799H10.731V5.80799H5.385ZM5.385 8.80799V7.80799H10.731V8.80799H5.385ZM12.885 6.07799C12.6783 6.07799 12.4983 6.00132 12.345 5.84799C12.1917 5.69465 12.115 5.51465 12.115 5.30799C12.115 5.10132 12.1917 4.92132 12.345 4.76799C12.4983 4.61465 12.6783 4.53799 12.885 4.53799C13.0917 4.53799 13.2713 4.61465 13.424 4.76799C13.5767 4.92132 13.6533 5.10132 13.654 5.30799C13.6547 5.51465 13.578 5.69465 13.424 5.84799C13.27 6.00132 13.091 6.07799 12.885 6.07799ZM12.884 9.07799C12.678 9.07799 12.4983 9.00132 12.345 8.84799C12.1917 8.69465 12.115 8.51465 12.115 8.30799C12.115 8.10132 12.1917 7.92132 12.345 7.76799C12.4983 7.61465 12.6783 7.53799 12.885 7.53799C13.0917 7.53799 13.2713 7.61465 13.424 7.76799C13.5767 7.92132 13.6533 8.10132 13.654 8.30799C13.6547 8.51465 13.578 8.69465 13.424 8.84799C13.27 9.00132 13.09 9.07799 12.884 9.07799ZM2 17.308H12V15.308H1V16.308C1 16.5913 1.096 16.829 1.288 17.021C1.48 17.213 1.71733 17.3087 2 17.308Z" fill="black"/>
</svg>
