<svg width="14" height="13" viewBox="0 0 14 13" fill="none" xmlns="http://www.w3.org/2000/svg">
<path d="M12.7059 9.45952V11.2095C12.7066 11.372 12.6733 11.5328 12.6082 11.6816C12.5431 11.8305 12.4477 11.9641 12.3279 12.0739C12.2082 12.1838 12.0669 12.2674 11.913 12.3194C11.7591 12.3715 11.596 12.3908 11.4342 12.3762C9.63921 12.1811 7.91498 11.5678 6.40006 10.5854C4.99063 9.68974 3.79567 8.49479 2.90006 7.08536C1.91421 5.56356 1.3007 3.83094 1.10923 2.02786C1.09465 1.86655 1.11382 1.70397 1.16552 1.55047C1.21722 1.39698 1.30031 1.25593 1.40951 1.1363C1.5187 1.01668 1.65161 0.921104 1.79977 0.855662C1.94793 0.790219 2.10809 0.756343 2.27006 0.756191H4.02006C4.30316 0.753404 4.57761 0.853653 4.79225 1.03825C5.0069 1.22285 5.14711 1.4792 5.18673 1.75952C5.26059 2.31956 5.39757 2.86945 5.59506 3.39869C5.67354 3.60748 5.69053 3.83439 5.64401 4.05254C5.59748 4.27068 5.4894 4.47092 5.33256 4.62952L4.59173 5.37036C5.42213 6.83076 6.63133 8.03995 8.09173 8.87036L8.83256 8.12952C8.99116 7.97269 9.1914 7.8646 9.40955 7.81808C9.62769 7.77155 9.8546 7.78854 10.0634 7.86702C10.5926 8.06451 11.1425 8.20149 11.7026 8.27536C11.9859 8.31533 12.2447 8.45806 12.4297 8.6764C12.6147 8.89473 12.713 9.17344 12.7059 9.45952Z" stroke="#0A0B0A" stroke-width="0.900635" stroke-linecap="round" stroke-linejoin="round"/>
</svg>
